<?xml version="1.0" standalone="no"?>
<!DOCTYPE svg PUBLIC "-//W3C//DTD SVG 20010904//EN"
 "http://www.w3.org/TR/2001/REC-SVG-20010904/DTD/svg10.dtd">
<svg version="1.0" xmlns="http://www.w3.org/2000/svg"
 width="425.000000pt" height="118.000000pt" viewBox="0 0 425.000000 118.000000"
 preserveAspectRatio="xMidYMid meet">
<metadata>
Created by potrace 1.16, written by Peter Selinger 2001-2019
</metadata>
<g transform="translate(0.000000,118.000000) scale(0.100000,-0.100000)"
fill="#000000" stroke="none">
<path d="M4097 1162 c-3 -4 -24 -59 -47 -122 -150 -409 -335 -650 -499 -650
-93 0 -166 56 -351 270 -236 272 -333 335 -521 335 -91 0 -99 -2 -175 -39
-108 -54 -200 -149 -334 -345 -58 -85 -130 -186 -162 -225 -133 -167 -263
-214 -407 -146 -66 32 -127 88 -356 331 -161 171 -287 239 -443 239 -92 0
-161 -18 -257 -68 -92 -48 -258 -212 -347 -342 -75 -108 -188 -300 -188 -318
0 -11 109 -72 128 -72 5 0 37 48 70 107 84 151 173 274 267 368 173 173 327
213 483 125 65 -38 160 -127 283 -266 107 -120 212 -210 292 -248 81 -38 180
-53 259 -38 165 31 281 132 473 412 198 287 291 370 419 370 120 -1 196 -55
383 -270 213 -246 317 -324 454 -336 214 -20 399 144 574 509 49 103 155 364
155 382 0 5 -122 45 -136 45 -7 0 -15 -3 -17 -8z"/>
</g>
</svg>
